<svg xmlns="http://www.w3.org/2000/svg" width="32" height="32" viewBox="0 0 32 32">
  <!-- Map marker with garage sale theme -->
  <path fill="#4285F4" d="M16 0C7.163 0 0 7.163 0 16C0 24.837 16 32 16 32C16 32 32 24.837 32 16C32 7.163 24.837 0 16 0Z"/>
  <path fill="#FFFFFF" d="M16 8C12.686 8 10 10.686 10 14V20H22V14C22 10.686 19.314 8 16 8Z"/>
  <rect x="10" y="20" width="12" height="2" fill="#FFFFFF"/> <!-- Base of house -->
  <path fill="#FF5252" d="M16 9L9 16H12V21H20V16H23L16 9Z"/> <!-- Garage sale sign - house with roof -->
</svg>
